<svg class="t-review-social-links__svg" xmlns="http://www.w3.org/2000/svg" width="30" height="30" viewBox="0 0 48 48" fill="#ffffff"><path d="M47.761 24c0 13.121-10.639 23.76-23.76 23.76C10.878 47.76.239 37.121.239 24 .239 10.877 10.878.24 24.001.24c13.121 0 23.76 10.637 23.76 23.76m-12.502 4.999c-2.621-2.433-2.271-2.041.89-6.25 1.923-2.562 2.696-4.126 2.45-4.796-.227-.639-1.64-.469-1.64-.469l-4.71.029s-.351-.048-.609.106c-.249.151-.414.505-.414.505s-.742 1.982-1.734 3.669c-2.094 3.559-2.935 3.747-3.277 3.524-.796-.516-.597-2.068-.597-3.171 0-3.449.522-4.887-1.02-5.259-.511-.124-.887-.205-2.195-.219-1.678-.016-3.101.007-3.904.398-.536.263-.949.847-.697.88.31.041 1.016.192 1.388.699.484.656.464 2.131.464 2.131s.282 4.056-.646 4.561c-.632.347-1.503-.36-3.37-3.588-.958-1.652-1.68-3.481-1.68-3.481s-.14-.344-.392-.527c-.299-.222-.722-.298-.722-.298l-4.469.018s-.674-.003-.919.289c-.219.259-.018.752-.018.752s3.499 8.104 7.573 12.23c3.638 3.784 7.764 3.36 7.764 3.36h1.867s.566.113.854-.189c.265-.288.256-.646.256-.646s-.034-2.512 1.129-2.883c1.15-.36 2.624 2.429 4.188 3.497 1.182.812 2.079.633 2.079.633l4.181-.056s2.186-.136 1.149-1.858c-.197-.139-.715-1.269-3.219-3.591"></path></svg>