<svg width="50" height="50" viewBox="0 0 50 50" fill="none" xmlns="http://www.w3.org/2000/svg"><g clip-path="url(#clip0)"><path d="M25 50C38.8071 50 50 38.8071 50 25C50 11.1929 38.8071 0 25 0C11.1929 0 0 11.1929 0 25C0 38.8071 11.1929 50 25 50Z" fill="white"></path><path d="M26.1 12C23.9397 12.0032 21.8196 12.5843 19.9595 13.683C18.0994 14.7817 16.567 16.3579 15.5214 18.2483C14.4757 20.1387 13.9547 22.2744 14.0125 24.4339C14.0703 26.5935 14.7047 28.6982 15.85 30.53L16.14 30.99L14.92 35.45L19.49 34.25L19.94 34.52C21.3708 35.3776 22.9633 35.9303 24.6177 36.1435C26.2721 36.3567 27.9527 36.2258 29.5542 35.7591C31.1556 35.2923 32.6434 34.4997 33.9242 33.431C35.205 32.3623 36.2512 31.0406 36.9972 29.5486C37.7431 28.0566 38.1729 26.4266 38.2593 24.7607C38.3458 23.0949 38.0872 21.4291 37.4998 19.8679C36.9123 18.3067 36.0086 16.8837 34.8454 15.6881C33.6822 14.4925 32.2845 13.5501 30.74 12.92C29.27 12.32 27.69 12 26.1 12.01V12ZM32.89 29.22C32.59 30.07 31.17 30.84 30.48 30.94C29.86 31.04 29.08 31.08 28.23 30.8C27.53 30.58 26.86 30.33 26.2 30.03C22.61 28.46 20.27 24.79 20.1 24.55C19.91 24.31 18.63 22.58 18.63 20.79C18.63 19 19.56 18.12 19.88 17.76C20.21 17.39 20.6 17.3 20.84 17.3C21.07 17.3 21.31 17.3 21.52 17.32C21.74 17.32 22.04 17.23 22.32 17.94L23.42 20.64C23.52 20.82 23.58 21.04 23.46 21.28C23.34 21.52 23.28 21.67 23.1 21.88C22.92 22.09 22.72 22.35 22.56 22.52C22.38 22.7 22.2 22.9 22.41 23.26C22.61 23.62 23.33 24.81 24.39 25.78C25.76 27.01 26.91 27.4 27.27 27.58C27.62 27.76 27.83 27.73 28.04 27.48C28.24 27.25 28.94 26.43 29.17 26.06C29.41 25.7 29.65 25.76 29.97 25.88C30.3 26 32.06 26.88 32.41 27.06C32.77 27.25 33.01 27.34 33.1 27.49C33.19 27.64 33.19 28.37 32.89 29.22V29.22Z" fill="#27D061"></path><path d="M25 0C18.3696 0 12.0107 2.63392 7.32233 7.32233C2.63392 12.0107 0 18.3696 0 25C0 31.6304 2.63392 37.9893 7.32233 42.6777C12.0107 47.3661 18.3696 50 25 50C31.6304 50 37.9893 47.3661 42.6777 42.6777C47.3661 37.9893 50 31.6304 50 25C50 18.3696 47.3661 12.0107 42.6777 7.32233C37.9893 2.63392 31.6304 0 25 0V0ZM26.03 38.37C23.61 38.37 21.23 37.77 19.13 36.61L11.46 38.61L13.51 31.16C12.2415 28.9728 11.5755 26.4884 11.58 23.96C11.58 16.04 18.07 9.58 26.03 9.58C27.9523 9.52933 29.8653 9.86419 31.6561 10.5648C33.4469 11.2655 35.0792 12.3177 36.4567 13.6594C37.8343 15.0011 38.9291 16.6051 39.6767 18.3768C40.4243 20.1485 40.8094 22.052 40.8094 23.975C40.8094 25.898 40.4243 27.8015 39.6767 29.5732C38.9291 31.3449 37.8343 32.9489 36.4567 34.2906C35.0792 35.6323 33.4469 36.6845 31.6561 37.3852C29.8653 38.0858 27.9523 38.4207 26.03 38.37V38.37Z" fill="#27D061"></path></g><defs><clipPath id="clip0"><rect width="50" height="50" fill="white"></rect></clipPath></defs></svg>